<svg xmlns="http://www.w3.org/2000/svg" width="3055" height="416" viewBox="0 0 3055 416">
  <path id="KLIM_STEPAN_" data-name="KLIM STEPAN" fill="#222" fill-rule="evenodd" d="M614.51,114.172L717.465,229.546h35.854L648.161,112.37,739.3,8.813H706.649L614.51,114.172V8.813H585.667V229.546H614.51V114.172ZM923.376,229.546V205.31H807.6V8.813H778.758V229.546H923.376ZM977.458,8.813H948.614V229.546h28.844V8.813Zm66.1,88.934-0.8-35.854h0.8l13.02,35.854,42.46,98.749h29.04l39.06-98.348,14.23-39.46h0.6l-0.6,39.259v131.6h25.43V8.813h-27.84l-63.09,157.638L1047.36,8.813h-28.24V229.546h24.44V97.747Zm336.3,83.526a53.7,53.7,0,0,0,8.62,29.645q8.61,13.422,25.24,19.329t41.26,5.909q26.04,0,41.66-8.012a58.043,58.043,0,0,0,24.44-23.535,64.32,64.32,0,0,0,8.81-32.149,57.031,57.031,0,0,0-10.82-33.45q-10.815-15.624-43.26-29.645l-13.62-5.809q-20.04-8.811-28.44-14.121a39.909,39.909,0,0,1-13.22-13.32,32.506,32.506,0,0,1-4.81-17.026q0-13.619,10.11-24.236,10.125-10.614,31.35-10.616a70.7,70.7,0,0,1,19.03,2.4q8.61,2.4,13.02,7.611t4.41,10.616v1.6h28.64v-1.6q0-17.023-14.02-29.845T1459.58,2.2q-37.65,0-55.38,17.226t-17.73,42.264a57.229,57.229,0,0,0,5.71,25.739,64.228,64.228,0,0,0,17.33,21.032q11.61,9.516,35.05,19.128l11.42,4.607q22.425,9.216,33.25,18.228a29.653,29.653,0,0,1,11.02,23.836q0,17.831-12.72,28.843t-31.55,11.017q-21.435,0-34.35-7.211-12.93-7.211-12.92-25.639v-1.4h-28.85v1.4Zm269.21,48.273V31.047h73.91V8.813H1545.31V31.047h75.12v198.5h28.64Zm231.55,0V205.31H1777.06V124.788h83.73V102.755h-83.73V33.05h95.95V8.813H1748.22V229.546h132.4Zm64.1-87.131h27.24q41.865,0,62.99-21.032T2056.08,69.3q0-18.426-7.31-32.249a48.261,48.261,0,0,0-21.83-21.032q-14.52-7.211-49.57-7.211h-61.5V229.546h28.85V142.415Zm0-111.368h33.25q28.845,0,38.55,10.816,9.72,10.816,9.72,28.643,0,20.431-12.02,35.153t-50.27,14.723h-19.23V31.047Zm176.26,137.808h97.35l22.83,60.691h31.05L2188.68,8.813h-28.84L2069.3,229.546h26.64Zm50.08-124.588,38.66,102.554H2129.6Zm152.83,27.642-0.4-17.627,9.21,17.627,101.15,157.638h28.05V8.813h-26.44V165.85l0.6,17.426-9.22-17.626L2325.89,8.813h-28.44V229.546h26.44V71.909Z"/>
  <path id="C_I_N_E_M_A_T_O_G_R_A_P_H_E_R" data-name="C I N E M A T O G R A P H E R" fill="#777" fill-rule="evenodd"  d="M867.764,396a8.688,8.688,0,0,1-2.909,6.326q-2.909,2.849-9.8,2.848-10.014,0-15.02-7.944t-5.007-20.477q0-12.413,4.977-20.417t15.11-8a18.076,18.076,0,0,1,6.775,1.139,9.317,9.317,0,0,1,4.348,3.388,8.162,8.162,0,0,1,1.529,4.647v0.419h7.914v-0.419a14.43,14.43,0,0,0-2.7-7.885,15.622,15.622,0,0,0-7.315-6,28.558,28.558,0,0,0-10.853-1.889q-12.712,0-20.686,8.814t-7.975,26.2q0,17.51,8,26.263t20.6,8.754a28.735,28.735,0,0,0,10.913-1.889,15.741,15.741,0,0,0,7.315-5.936,14.3,14.3,0,0,0,2.7-7.945v-0.419h-7.914V396Zm66.975-52.285h-8.634v66.076h8.634V343.716Zm61.28,18.887-0.12-5.276,2.758,5.276,30.283,47.189h8.39V343.716h-7.91v47.009l0.18,5.216-2.76-5.276-30.221-46.949H988.1v66.076h7.915V362.6Zm134.371,47.189v-7.255h-31v-24.1h25.06v-6.6h-25.06V350.971h28.72v-7.255h-37.35v66.076h39.63Zm58.76-39.454-0.24-10.733h0.24l3.9,10.733,12.71,29.561h8.7l11.69-29.441,4.25-11.812h0.18L1230.4,370.4v39.394h7.62V343.716h-8.33l-18.89,47.189-20.51-47.189h-8.45v66.076h7.31V370.338ZM1302,391.624h29.14l6.83,18.168h9.3l-25.01-66.076h-8.63l-27.1,66.076h7.97Zm14.99-37.3,11.57,30.7h-23.98Zm104.87,55.463V350.371h22.12v-6.655H1390.8v6.655h22.48v59.421h8.58Zm116.62-7.135q7.86-9.114,7.86-25.9t-7.86-25.9a27.053,27.053,0,0,0-40.5,0q-7.83,9.115-7.83,25.9t7.83,25.9A27.053,27.053,0,0,0,1538.48,402.657Zm-34.36-5.277q-5.085-7.794-5.09-20.626t5.09-20.626q5.1-7.794,14.1-7.795,8.985,0,14.06,7.795,5.055,7.794,5.06,20.626t-5.06,20.626q-5.07,7.8-14.06,7.8T1504.12,397.38Zm140.55-20.266h-22.78v6.6h14.87v18.828a38.761,38.761,0,0,1-12.89,2.638,16.7,16.7,0,0,1-14.63-7.645q-5.22-7.644-5.22-20.836,0-13.251,5.07-20.806t14.72-7.555a17.659,17.659,0,0,1,6.53,1.139,12.067,12.067,0,0,1,4.65,3.118,6.282,6.282,0,0,1,1.77,4.257v0.48h7.91v-0.48a12.571,12.571,0,0,0-2.85-7.525,17.032,17.032,0,0,0-7.7-5.7,29.578,29.578,0,0,0-10.79-1.889,26.7,26.7,0,0,0-14.93,4.107,27.341,27.341,0,0,0-9.78,11.363q-3.48,7.255-3.48,20.326,0,11.574,3.66,18.978a27.5,27.5,0,0,0,9.81,11.333q6.135,3.925,16.04,3.927a46.728,46.728,0,0,0,20.02-4.977v-29.68Zm61.1,4.257h8.7a40.16,40.16,0,0,1,8.63,11.033l9.11,17.388h9.84l-10.49-19.547q-1.14-2.1-2.67-4.467a21.874,21.874,0,0,0-2.61-3.448,15.308,15.308,0,0,0-3.18-2.278,22.776,22.776,0,0,0,8.34-5.1,21.749,21.749,0,0,0,4.19-6.446,18.915,18.915,0,0,0,1.5-7.405,18.606,18.606,0,0,0-2.22-8.934,15.446,15.446,0,0,0-5.99-6.3q-3.78-2.159-11.34-2.158h-20.44v66.076h8.63V381.371Zm0-31h9q5.925,0,8.39,1.649a11.15,11.15,0,0,1,3.75,4.108,11.82,11.82,0,0,1,1.29,5.576,14.4,14.4,0,0,1-1.62,6.685,11.4,11.4,0,0,1-4.38,4.767q-2.76,1.62-8.03,1.619h-8.4v-24.4Zm95.64,41.253h29.14l6.84,18.168h9.29l-25-66.076h-8.64l-27.1,66.076h7.97Zm14.99-37.3,11.57,30.7h-23.98Zm87.36,29.38h8.16q12.525,0,18.85-6.3a21.116,21.116,0,0,0,6.33-15.59,20.344,20.344,0,0,0-2.19-9.654,14.485,14.485,0,0,0-6.53-6.3q-4.35-2.159-14.84-2.158h-18.41v66.076h8.63V383.709Zm0-33.338h9.96q8.625,0,11.54,3.238a12.344,12.344,0,0,1,2.91,8.575,16.11,16.11,0,0,1-3.6,10.523q-3.6,4.407-15.05,4.407h-5.76V350.371Zm91.74,29.381h30.34v30.04h8.58V343.716h-8.58v29.44H1995.5v-29.44h-8.63v66.076h8.63v-30.04Zm132.03,30.04v-7.255h-30.99v-24.1h25.06v-6.6h-25.06V350.971h28.72v-7.255H2087.9v66.076h39.63Zm60.09-28.421h8.69a39.971,39.971,0,0,1,8.63,11.033l9.12,17.388h9.83l-10.49-19.547q-1.14-2.1-2.67-4.467a21.874,21.874,0,0,0-2.61-3.448,15.308,15.308,0,0,0-3.18-2.278,22.776,22.776,0,0,0,8.34-5.1,21.586,21.586,0,0,0,4.2-6.446,19.085,19.085,0,0,0,1.49-7.405,18.711,18.711,0,0,0-2.21-8.934,15.468,15.468,0,0,0-6-6.3q-3.78-2.159-11.33-2.158h-20.45v66.076h8.64V381.371Zm0-31h8.99c3.96,0,6.75.55,8.39,1.649a11.15,11.15,0,0,1,3.75,4.108,11.82,11.82,0,0,1,1.29,5.576,14.4,14.4,0,0,1-1.62,6.685,11.4,11.4,0,0,1-4.38,4.767q-2.745,1.62-8.03,1.619h-8.39v-24.4Z"/>
</svg>
