<svg xmlns="http://www.w3.org/2000/svg" width="3055" height="326" viewBox="0 0 3055 326">
  <path id="ANNA_DERZHANOVSKA" data-name="ANNA DERZHANOVSKA" fill="black" fill-rule="evenodd" d="M35.581,322.428l13.473-70.5h72.618l13.722,70.5h35.359L101.831,3.519H68.468L0.669,322.428H35.581ZM69.961,142.489L84.11,68.459l1.822-.038,14.25,73.171,14.777,75.877H55.635ZM234.535,322.428v-218.2h1.343l23.051,57.74,66.019,160.461h33.794V3.519H322.487V223.063l-1.791.447-21.932-58.186L232.745,3.519H198.28V322.428h36.255Zm206.116,0v-218.2h1.343l23.051,57.74,66.019,160.461h33.793V3.519H528.6V223.063l-1.79.447L504.88,165.324,438.86,3.519H404.4V322.428h36.255Zm187.988,0,13.473-70.5H714.73l13.722,70.5h35.36L694.89,3.519H661.527l-67.8,318.909h34.912ZM663.02,142.489l14.148-74.03,1.822-.038,14.249,73.171,14.778,75.877H648.693ZM952.034,322.428q24.1,0,43.06-10.078t27.666-37.185q6.015-18.815,6.03-46.165V93.814q0-28.471-5.14-47.6-6.24-23.126-22.75-32.912T956.052,3.519H882.2V322.428h69.835ZM918.454,36.417h32.577q23.2,0,32.352,12.445t9.148,33.961V241.778q0,22.869-9.6,35.31t-31.9,12.442H918.454V36.417ZM1212.52,322.428v-32.9H1112.26V177.185h86.83v-32.9h-86.83V36.417h100.26V3.519H1076.01V322.428h136.51Zm67.36,0V182.108h34.36l45.32,140.32h37.15l-48.78-147.387q24.57-11.618,32.75-32.622t8.19-48.483q0-45.764-18.29-68.09T1313.46,3.519h-69.83V322.428h36.25Zm0-286.011h27.45q13.83,0,22.42,4.158a35.68,35.68,0,0,1,13.94,11.795,44.045,44.045,0,0,1,7.14,18.2,140.711,140.711,0,0,1,1.79,23.366,131.709,131.709,0,0,1-1.79,22.583,45.9,45.9,0,0,1-6.58,17.526,31.473,31.473,0,0,1-13.05,11.235q-8.25,3.933-20.53,3.93h-30.79V36.417ZM1547.1,322.428v-32.9h-91.85l92.29-253.113V3.519H1422.46v32.9h88.93L1417.97,289.53v32.9H1547.1Zm69.37,0V175.394h74.08V322.428h36.25V3.519h-36.25v140.1h-74.08V3.519h-36.25V322.428h36.25Zm175.91,0,13.47-70.5h72.62l13.72,70.5h35.36L1858.63,3.519h-33.37l-67.8,318.909h34.92Zm34.38-179.939,14.14-74.03,1.83-.038,14.25,73.171,14.77,75.877h-59.32Zm164.57,179.939v-218.2h1.34l23.05,57.74,66.02,160.461h33.8V3.519h-36.26V223.063l-1.79.447-21.93-58.186-66.02-161.8h-34.46V322.428h36.25Zm185.3-18.351q16.785,21.484,56.18,21.484,40.275,0,57.06-23.163t16.79-65.684V89.233a224.342,224.342,0,0,0-2.58-35.36,70.135,70.135,0,0,0-10.4-27.974q-7.845-11.859-22.27-18.575T2233.25,0.61q-22.815,0-37.04,7.609a58.581,58.581,0,0,0-22.26,20.254,80.517,80.517,0,0,0-11.08,28.646,177.946,177.946,0,0,0-3.02,33.01v157.1Q2159.85,282.6,2176.63,304.077ZM2196.1,92.643q0-6.945.67-17.246a62.98,62.98,0,0,1,4.37-19.488,41.8,41.8,0,0,1,11.08-15.792q7.38-6.609,21.03-6.609,12.315,0,19.92,4.815a31.181,31.181,0,0,1,11.3,11.872,46.44,46.44,0,0,1,4.81,15.792,133.239,133.239,0,0,1,1.12,17.022v158.36a102.492,102.492,0,0,1-1.68,18.7,52.194,52.194,0,0,1-5.7,16.239,32.449,32.449,0,0,1-11.42,11.76q-7.38,4.594-18.79,4.591t-18.58-4.367a33.039,33.039,0,0,1-11.3-11.2,41.5,41.5,0,0,1-5.48-14.669,87.279,87.279,0,0,1-1.35-14.784v-155Zm201.97,230.234h39.28l61.1-319.357H2461.3l-24.39,133.83-18.12,111.674h-1.57l-18.74-110.506-22.89-135h-37.15ZM2528.22,281.7a60.171,60.171,0,0,0,13.42,23.1,61.714,61.714,0,0,0,23.39,15.288q14.2,5.466,33.46,5.469,21.2,0,35.36-6.364a57.052,57.052,0,0,0,22.99-18.316,77.344,77.344,0,0,0,12.71-28.366,160.351,160.351,0,0,0,3.91-36.969,247.111,247.111,0,0,0-1.78-31.244,65.992,65.992,0,0,0-8.12-24.753q-6.36-10.974-18.48-19.936t-32.72-17.246q-17.91-6.945-27.75-13.326t-14.88-12.991a30.46,30.46,0,0,1-6.15-14.225,122.582,122.582,0,0,1-1.12-17.7,111.38,111.38,0,0,1,1.34-17.022,44.06,44.06,0,0,1,5.48-15.792,34.446,34.446,0,0,1,11.3-11.648q7.17-4.59,19.03-4.591,21.03,0,29.76,11.76T2638.1,80.1l35.36-9.183a92.8,92.8,0,0,0-3.35-24.4A60.09,60.09,0,0,0,2658.29,23.9q-8.475-10.3-22.43-16.792Q2621.925,0.61,2601.4.61q-18.81,0-33.01,6.27a64,64,0,0,0-23.61,17.466,73.375,73.375,0,0,0-13.99,26.53,117.179,117.179,0,0,0-4.59,33.7,148.417,148.417,0,0,0,2.24,26.88,59.027,59.027,0,0,0,9.62,22.848q7.395,10.754,20.93,20.607t35.92,19.488a186.307,186.307,0,0,1,22.71,11.088,40.727,40.727,0,0,1,12.98,11.76,38.274,38.274,0,0,1,6.04,15.68,148.724,148.724,0,0,1,1.46,23.068q0,10.978-1.01,21.058a50.453,50.453,0,0,1-4.81,17.694,27.34,27.34,0,0,1-11.97,11.983q-8.175,4.37-21.82,4.368-10.965,0-18.47-3.7a30.186,30.186,0,0,1-11.86-10.078,42.523,42.523,0,0,1-6.26-14.449,74.838,74.838,0,0,1-1.91-17.246l-36.03,7.388A93.411,93.411,0,0,0,2528.22,281.7Zm221.55,40.727V229.777l31.33-60.425,57.74,153.076h36.48l-73.18-192.912,61.77-126h-36.26l-76.98,158.895h-0.9V3.519h-36.25V322.428h36.25Zm169.86,0,13.48-70.5h72.62l13.72,70.5h35.36L2985.88,3.519h-33.36l-67.8,318.909h34.91Zm34.38-179.939,14.15-74.03,1.82-.038,14.25,73.171,14.78,75.877h-59.32Z"/>
</svg>
