<?xml version="1.0" standalone="no"?>
<!DOCTYPE svg PUBLIC "-//W3C//DTD SVG 20010904//EN"
 "http://www.w3.org/TR/2001/REC-SVG-20010904/DTD/svg10.dtd">
<svg version="1.0" xmlns="http://www.w3.org/2000/svg"
 width="800.000000pt" height="800.000000pt" viewBox="0 0 800.000000 800.000000"
 preserveAspectRatio="xMidYMid meet">
<metadata>
Created by potrace 1.11, written by Peter Selinger 2001-2013
</metadata>
<g transform="translate(0.000000,800.000000) scale(0.100000,-0.100000)"
fill="#000000" stroke="none">
<path d="M2871 6448 c-50 -14 -118 -64 -147 -107 -13 -21 -71 -179 -129 -351
-58 -172 -115 -330 -128 -349 -28 -42 -89 -87 -144 -107 -30 -10 -133 -13
-468 -14 -478 0 -504 -3 -631 -66 -88 -43 -157 -100 -216 -179 -56 -73 -79
-119 -108 -210 l-22 -70 0 -1495 c-1 -1637 -4 -1541 58 -1675 84 -184 256
-317 459 -354 41 -8 817 -11 2615 -11 2227 0 2563 2 2618 15 243 57 417 228
479 469 14 54 15 235 15 1546 1 1354 -1 1491 -16 1550 -56 216 -203 376 -416
452 -63 22 -77 23 -535 28 -457 5 -471 6 -510 27 -52 27 -108 80 -127 118 -9
17 -61 169 -118 338 -113 342 -127 369 -220 421 l-55 31 -1110 2 c-711 1
-1122 -2 -1144 -9z m1444 -1267 c403 -89 741 -311 967 -636 281 -404 358 -920
207 -1380 -16 -49 -37 -106 -46 -125 -8 -19 -22 -51 -31 -70 -23 -53 -94 -175
-104 -178 -4 -2 -8 -8 -8 -14 0 -33 -211 -267 -305 -339 -16 -13 -32 -26 -35
-29 -17 -19 -157 -109 -234 -149 -303 -159 -631 -210 -999 -156 -112 17 -313
83 -422 138 -484 247 -812 719 -862 1242 -45 481 115 931 452 1269 235 236
531 387 867 442 122 20 435 12 553 -15z m2333 -181 c16 -4 100 -80 88 -80 -5
0 -3 -7 4 -15 18 -22 16 -105 -4 -142 -9 -18 -33 -45 -53 -60 l-36 -28 -349
-2 c-344 -3 -349 -2 -382 19 -119 78 -109 233 19 302 26 13 73 15 365 12 184
-2 341 -5 348 -6z"/>
</g>
</svg>
